<?xml version="1.0" encoding="UTF-8"?>
<svg width="36px" height="30px" viewBox="0 0 36 30" version="1.1" xmlns="http://www.w3.org/2000/svg" xmlns:xlink="http://www.w3.org/1999/xlink">
    <!-- Generator: Sketch 48.1 (47250) - http://www.bohemiancoding.com/sketch -->
    <title>35@2x</title>
    <desc>Created with Sketch.</desc>
    <defs>
        <rect id="path-1" x="10" y="23" width="16" height="2"></rect>
        <rect id="path-2" x="10" y="17" width="16" height="2"></rect>
    </defs>
    <g id="切图" stroke="none" stroke-width="1" fill="none" fill-rule="evenodd" transform="translate(-890.000000, -232.000000)">
        <g id="Group-8" transform="translate(890.000000, 232.000000)">
            <g id="Fill-614">
                <path d="M18.2784453,1.06650627 C18.1031488,0.977748386 17.8963026,0.977830713 17.7223476,1.06610245 L1.35977327,9.39889416 C1.14077516,9.51074996 1,9.74274109 1,10 L1,13.3333333 C1,13.705114 1.28952443,14 1.63636364,14 L4.27272727,14 L4.27272727,28.3333333 C4.27272727,28.705114 4.5622517,29 4.90909091,29 L31.0909091,29 C31.4377483,29 31.7272727,28.705114 31.7272727,28.3333333 L31.7272727,14 L34.3636364,14 C34.7104756,14 35,13.705114 35,13.3333333 L35,10 C35,9.74274109 34.8592248,9.51074996 34.6412887,9.39943579 L18.2784453,1.06650627 Z" id="Path" stroke="#979797" stroke-width="2"></path>
                <g id="Rectangle-2">
                    <use fill="#D8D8D8" fill-rule="evenodd" xlink:href="#path-1"></use>
                    <rect stroke="#979797" stroke-width="1" x="10.5" y="23.5" width="15" height="1"></rect>
                </g>
                <g id="Rectangle-2">
                    <use fill="#D8D8D8" fill-rule="evenodd" xlink:href="#path-2"></use>
                    <rect stroke="#979797" stroke-width="1" x="10.5" y="17.5" width="15" height="1"></rect>
                </g>
                <rect id="Rectangle-8" stroke="#979797" stroke-width="2" x="11" y="13" width="14" height="16" rx="2"></rect>
            </g>
        </g>
    </g>
</svg>